<svg xmlns="http://www.w3.org/2000/svg" xmlns:svg="http://www.w3.org/2000/svg" id="svg8" width="1199.814" height="120mm" version="1.1" viewBox="0 0 317.451 120"><metadata id="metadata5"/><g id="layer1" transform="translate(89.185173,-99.999999)"><g id="g92" transform="matrix(0.75,0,0,0.75,-111.68429,93.880632)"><ellipse style="fill:none;fill-opacity:1;stroke:orange;stroke-width:4.41565;stroke-linejoin:miter;stroke-dasharray:none;stroke-opacity:1;paint-order:normal" id="path65-9" cx="87.921" cy="21.924" rx="11.557" ry="11.557"/><ellipse style="fill:none;fill-opacity:1;stroke:orange;stroke-width:4.41565;stroke-linejoin:miter;stroke-dasharray:none;stroke-opacity:1;paint-order:normal" id="path65-9-8" cx="132.111" cy="77.154" rx="11.557" ry="11.557"/><ellipse style="fill:none;fill-opacity:1;stroke:orange;stroke-width:4.41565;stroke-linejoin:miter;stroke-dasharray:none;stroke-opacity:1;paint-order:normal" id="path65-9-8-6" cx="132.077" cy="154.394" rx="11.557" ry="11.557"/><ellipse style="fill:none;fill-opacity:1;stroke:orange;stroke-width:4.41565;stroke-linejoin:miter;stroke-dasharray:none;stroke-opacity:1;paint-order:normal" id="path65" cx="43.792" cy="55.07" rx="11.586" ry="11.586"/><circle style="fill:orange;fill-opacity:1;stroke:none;stroke-width:0;stroke-linejoin:miter;stroke-dasharray:none;stroke-opacity:1;paint-order:normal" id="path3625" cx="43.798" cy="55.075" r="6.072"/><ellipse style="fill:none;fill-opacity:1;stroke:orange;stroke-width:4.41565;stroke-linejoin:miter;stroke-dasharray:none;stroke-opacity:1;paint-order:normal" id="path65-97" cx="176.234" cy="55.042" rx="11.557" ry="11.557"/><circle style="fill:orange;fill-opacity:1;stroke:none;stroke-width:0;stroke-linejoin:miter;stroke-dasharray:none;stroke-opacity:1;paint-order:normal" id="path3625-3" cx="176.267" cy="55.075" r="6.072"/><ellipse style="fill:none;fill-opacity:1;stroke:orange;stroke-width:4.41565;stroke-linejoin:miter;stroke-dasharray:none;stroke-opacity:1;paint-order:normal" id="path65-97-8" cx="87.921" cy="99.198" rx="11.557" ry="11.557"/><circle style="fill:orange;fill-opacity:1;stroke:none;stroke-width:0;stroke-linejoin:miter;stroke-dasharray:none;stroke-opacity:1;paint-order:normal" id="path3625-3-7" cx="87.954" cy="99.232" r="6.072"/><ellipse style="fill:none;fill-opacity:1;stroke:orange;stroke-width:4.41565;stroke-linejoin:miter;stroke-dasharray:none;stroke-opacity:1;paint-order:normal" id="path65-97-8-3" cx="176.234" cy="132.316" rx="11.557" ry="11.557"/><circle style="fill:orange;fill-opacity:1;stroke:none;stroke-width:0;stroke-linejoin:miter;stroke-dasharray:none;stroke-opacity:1;paint-order:normal" id="path3625-3-7-7" cx="176.267" cy="132.349" r="6.072"/><path style="fill:#000;fill-opacity:1;stroke:orange;stroke-width:4.41565;stroke-linejoin:miter;stroke-dasharray:none;stroke-opacity:1;paint-order:normal" id="path7177" d="M 53.038538,48.042417 78.49974,28.848595"/><path style="fill:#000;fill-opacity:1;stroke:orange;stroke-width:4.41565;stroke-linejoin:miter;stroke-dasharray:none;stroke-opacity:1;paint-order:normal" id="path7179" d="m 54.99709,58.618604 65.02399,17.235283"/><path style="fill:#000;fill-opacity:1;stroke:orange;stroke-width:4.416;stroke-linejoin:miter;stroke-miterlimit:4;stroke-dasharray:none;stroke-opacity:1;paint-order:normal" id="path7181" d="M 99.260413,23.756347 165.45954,50.000978"/><path style="fill:#000;fill-opacity:1;stroke:orange;stroke-width:4.41565;stroke-linejoin:miter;stroke-dasharray:none;stroke-opacity:1;paint-order:normal" id="path7183" d="M 165.85125,59.79374 142.74031,71.936776"/><path style="fill:#000;fill-opacity:1;stroke:orange;stroke-width:4.41565;stroke-linejoin:miter;stroke-dasharray:none;stroke-opacity:1;paint-order:normal" id="path7185" d="M 98.47699,93.872584 121.58793,82.121261"/><path style="fill:#000;fill-opacity:1;stroke:orange;stroke-width:4.41565;stroke-linejoin:miter;stroke-dasharray:none;stroke-opacity:1;paint-order:normal" id="path7189" d="M 168.59322,123.64261 139.21491,85.64666"/><path style="fill:none;fill-opacity:1;stroke:orange;stroke-width:4.41565;stroke-linecap:round;stroke-linejoin:round;stroke-dasharray:none;stroke-opacity:1;paint-order:normal" id="path7217" d="m 94.915983,108.722 28.986607,37.21252"/><path style="display:inline;fill:none;fill-opacity:1;stroke:orange;stroke-width:4.41565;stroke-linecap:round;stroke-linejoin:round;stroke-dasharray:none;stroke-opacity:1;paint-order:normal" id="path7219" d="m 143.48812,149.45991 21.93581,-10.57619"/></g><g id="text921" aria-label="eCAL" style="font-size:114.778px;line-height:1.25;font-family:sans-serif;-inkscape-font-specification:sans-serif;fill:orange;fill-opacity:1;stroke-width:.842456" transform="translate(10.000005)"><g id="text858" aria-label="eCAL" style="font-size:52.9167px;line-height:1.25;font-family:sans-serif;-inkscape-font-specification:sans-serif;stroke-width:.2229"><path d="m 50.943269,167.67291 v 1.32292 q 0,1.32292 0.211667,2.11667 0.211667,0.79375 0.740834,1.27 0.582084,0.42333 1.481667,0.58208 0.952501,0.15875 2.328335,0.15875 h 9.313339 v 5.97959 h -9.313339 q -6.826254,0 -9.736672,-2.59292 -2.910419,-2.59292 -2.910419,-8.30792 v -6.61459 q 0,-3.12208 0.582084,-5.23875 0.635,-2.16958 2.116668,-3.43959 1.534584,-1.32291 4.021669,-1.905 2.487085,-0.58208 6.297087,-0.58208 h 13.864175 q 3.069169,0 5.080003,0.58208 2.063751,0.58209 3.227919,1.64042 1.217084,1.00542 1.693334,2.48709 0.47625,1.42875 0.47625,3.12208 v 9.41917 z m 21.590013,-8.78417 q 0,-1.42875 -0.740834,-1.905 -0.687917,-0.47625 -2.487084,-0.47625 H 56.182022 q -1.481667,0 -2.487084,0.15875 -1.005418,0.10583 -1.640418,0.58208 -0.582084,0.47625 -0.846667,1.37584 -0.264584,0.89958 -0.264584,2.43417 v 1.53458 h 21.590013 z" style="font-style:normal;font-variant:normal;font-weight:400;font-stretch:normal;font-size:52.9167px;font-family:Neuropolitical;-inkscape-font-specification:Neuropolitical;stroke-width:.2229" id="path854"/><path d="m 99.626532,179.10292 q -3.968752,0 -6.614587,-0.635 -2.645835,-0.68792 -4.233336,-2.11667 -1.587501,-1.48167 -2.275418,-3.81 Q 85.86819,170.16 85.86819,166.72041 v -11.32417 q 0,-3.38667 0.635001,-5.76792 0.687917,-2.38125 2.275418,-3.81 1.587501,-1.48167 4.233336,-2.11667 2.645835,-0.68792 6.614587,-0.68792 h 25.029598 v 6.93209 H 99.996949 q -1.852084,0 -3.069169,0.3175 -1.164167,0.26458 -1.852084,0.9525 -0.687917,0.68792 -0.952501,1.85208 -0.264583,1.11126 -0.264583,2.75167 v 10.58334 q 0,1.69334 0.264583,2.80459 0.264584,1.11125 0.952501,1.79917 0.687917,0.68791 1.905001,0.9525 1.217084,0.26458 3.069173,0.26458 h 24.60626 v 6.87917 z" style="font-style:normal;font-variant:normal;font-weight:400;font-stretch:normal;font-size:52.9167px;font-family:Neuropolitical;-inkscape-font-specification:Neuropolitical;stroke-width:.2229" id="path856"/><path d="m 166.51315,170.795 h -24.97668 l -5.13292,8.30792 h -9.26042 l 20.95501,-33.33752 q 0.9525,-1.53458 2.27542,-2.54 1.32292,-1.00542 3.81,-1.00542 2.43417,0 3.75709,1.00542 1.32291,1.00542 2.27542,2.54 l 20.84917,33.33752 h -9.31333 z m -21.21959,-6.19125 h 17.46251 l -8.73126,-14.2346 z" style="font-style:normal;font-variant:normal;font-weight:400;font-stretch:normal;font-size:52.9167px;font-family:Neuropolitical;-inkscape-font-specification:Neuropolitical;stroke-width:.2229" id="path858"/><path d="m 196.14641,179.10292 q -3.96875,0 -6.61458,-0.635 -2.64584,-0.68792 -4.23334,-2.11667 -1.5875,-1.48167 -2.27542,-3.81 -0.635,-2.38125 -0.635,-5.82084 v -23.70668 h 7.99042 v 23.38918 q 0,1.5875 0.26459,2.69875 0.3175,1.05834 1.05833,1.79917 0.74083,0.68792 1.95792,1.00542 1.27,0.3175 3.175,0.3175 h 21.43126 v 6.87917 z" style="font-style:normal;font-variant:normal;font-weight:400;font-stretch:normal;font-size:52.9167px;font-family:Neuropolitical;-inkscape-font-specification:Neuropolitical;stroke-width:.2229" id="path860"/></g></g></g></svg>